<svg width="173" height="165" viewBox="0 0 173 165" fill="none" xmlns="http://www.w3.org/2000/svg">
<path d="M167.26 62.42C168.252 61.216 168.709 59.525 169.244 57.999C173.009 47.267 173.181 36.2 172.086 25.056C171.356 17.629 170.391 10.256 165.946 3.854C163.322 0.0740001 160.123 -0.763 156.138 1.731C154.432 2.798 152.661 3.67 150.763 4.334C135.731 9.594 123.03 17.912 114.722 31.946C113.638 33.777 112.431 34.23 110.148 33.724C94.949 30.346 79.643 30.069 64.408 33.371C61.141 34.079 59.628 33.323 57.666 30.74C48.41 18.556 37.835 7.919 22.529 3.452C21.46 3.14 20.299 2.859 19.419 2.229C15.142 -0.832 13.981 -0.898 10.642 3.018C5.946 8.526 5.21499 15.427 4.55499 22.25C3.17099 36.562 5.32901 50.508 9.29801 64.213C9.88201 66.229 9.59202 67.749 8.60102 69.48C-4.60798 92.545 -1.54 117.846 17.052 136.955C35.471 155.886 58.745 163.088 84.966 164.226C111.659 163.87 136.273 156.744 155.911 136.782C172.666 119.752 177.076 95.512 166.914 74.98C164.64 70.383 163.811 66.605 167.26 62.42ZM11.841 64.647C11.718 64.811 11.411 64.834 10.932 65.025C7.19701 52.291 5.83399 39.45 5.97299 26.426C6.03099 20.915 7.09299 15.525 8.40799 10.208C8.97299 7.923 10.223 5.834 11.876 4.071C13.993 1.813 16.27 1.475 18.126 4.169C25.686 15.147 33.926 25.708 39.247 38.087C40.081 40.027 40.312 41.588 38.066 42.775C27.787 48.214 18.891 55.327 11.841 64.647ZM33.268 107.004C22.681 100.374 21.523 89.493 22.19 78.988C22.356 76.384 24.945 75.62 27.154 75.063C33.015 73.588 38.829 74.161 44.559 75.798C59.5 80.065 68.533 90.542 70.306 105.57C70.873 110.366 69.86 111.791 65.061 112.896C64.332 113.064 63.586 113.197 62.841 113.245C60.972 113.364 59.1 113.425 57.708 113.486C48.721 113.218 40.591 111.591 33.268 107.004ZM109.087 146.958C103.288 153.041 95.844 155.124 87.665 155.281C80.099 155.189 73.063 153.463 67.242 148.268C59.615 141.46 59.605 131.526 67.17 124.703C77.927 115.002 98.719 115.595 108.819 125.891C114.99 132.18 115.17 140.579 109.087 146.958ZM134.07 111.924C129.5 113.341 124.83 114.066 120.044 114.035C107.12 113.649 106.922 112.43 109.199 100.393C112.22 84.421 132.188 71.868 149.146 75.621C152.625 76.39 154.393 78.023 154.433 81.638C154.604 97.102 148.678 107.394 134.07 111.924ZM159.084 62.041C152.963 55.01 145.911 49.114 137.778 44.547C135.726 43.395 134.346 42.237 135.472 39.543C140.406 27.74 146.057 16.376 155.29 7.241C160.679 1.909 163.457 2.652 166.227 9.854C168.921 16.864 169.569 24.139 169.083 31.413C169.458 41.626 168.279 51.482 164.81 60.977C163.092 65.68 162.343 65.784 159.084 62.041Z" fill="#DD04B7"/>
<path d="M57.708 113.487C48.721 113.218 40.591 111.591 33.268 107.006C22.681 100.375 21.523 89.494 22.19 78.989C22.356 76.385 24.945 75.62 27.154 75.064C33.015 73.589 38.829 74.162 44.559 75.799C59.5 80.066 68.533 90.543 70.306 105.571C70.873 110.367 69.86 111.792 65.061 112.897C64.332 113.065 63.586 113.198 62.841 113.246C60.972 113.365 59.1 113.425 57.708 113.487Z" fill="#FEFEFE"/>
<path d="M120.044 114.039C107.12 113.65 106.922 112.431 109.199 100.393C112.22 84.422 132.188 71.869 149.146 75.622C152.625 76.391 154.393 78.024 154.433 81.639C154.606 97.102 148.678 107.393 134.071 111.925C129.5 113.341 124.83 114.066 120.044 114.039Z" fill="#FEFEFE"/>
<path d="M169.084 31.413C169.459 41.626 168.28 51.482 164.811 60.977C163.092 65.68 162.342 65.784 159.084 62.041C152.963 55.01 145.911 49.114 137.778 44.547C135.726 43.395 134.346 42.237 135.472 39.543C140.406 27.74 146.057 16.376 155.29 7.241C160.679 1.909 163.457 2.652 166.227 9.854C168.922 16.864 169.569 24.139 169.084 31.413Z" fill="black"/>
<path d="M87.665 155.281C80.099 155.189 73.063 153.463 67.242 148.267C59.616 141.461 59.605 131.526 67.171 124.703C77.928 115.003 98.719 115.595 108.82 125.89C114.991 132.18 115.17 140.579 109.087 146.959C103.288 153.042 95.844 155.125 87.665 155.281ZM87.493 128.149C81.316 128.157 76.443 131.849 76.493 136.486C76.542 141.017 81.197 144.486 87.314 144.549C87.438 144.55 87.562 144.55 87.687 144.548C93.833 144.45 98.409 141.014 98.465 136.452C98.523 131.748 93.761 128.142 87.493 128.149Z" fill="#FEFEFE"/>
<path d="M10.932 65.026C7.19702 52.292 5.835 39.45 5.973 26.426C6.032 20.916 7.094 15.526 8.408 10.209C8.973 7.924 10.223 5.835 11.876 4.072C13.994 1.814 16.27 1.476 18.126 4.17C25.686 15.148 33.926 25.709 39.247 38.088C40.081 40.028 40.312 41.589 38.067 42.776C27.787 48.214 18.891 55.327 11.842 64.648C11.718 64.811 11.411 64.835 10.932 65.026Z" fill="black"/>
<path d="M87.493 128.149C93.761 128.142 98.524 131.748 98.465 136.452C98.409 141.014 93.833 144.45 87.687 144.548C87.562 144.55 87.438 144.55 87.314 144.549C81.197 144.486 76.542 141.018 76.493 136.486C76.442 131.849 81.315 128.157 87.493 128.149Z" fill="#DD04B7"/>
<path d="M88.436 96.569H88.746C90.556 96.569 92.166 95.709 93.186 94.379H83.986C85.006 95.708 86.616 96.569 88.436 96.569ZM95.536 94.378C94.286 96.857 91.716 98.568 88.746 98.568H88.436C85.466 98.568 82.886 96.857 81.636 94.378H81.176V108.739C81.176 111.887 83.736 114.449 86.886 114.449H90.286C93.436 114.449 95.996 111.887 95.996 108.739V94.378H95.536ZM88.586 109.098C86.606 109.098 84.996 107.49 84.996 105.508C84.996 103.518 86.606 101.909 88.586 101.909C90.576 101.909 92.176 103.517 92.176 105.508C92.176 107.49 90.576 109.098 88.586 109.098Z" fill="white"/>
<path d="M94.366 88.409V90.949C94.366 92.239 93.926 93.429 93.186 94.379C92.166 95.709 90.556 96.569 88.746 96.569H88.436C86.616 96.569 85.006 95.709 83.986 94.379C83.246 93.43 82.806 92.239 82.806 90.949V88.409C82.806 85.22 85.396 82.629 88.586 82.629C91.776 82.629 94.366 85.219 94.366 88.409Z" fill="white"/>
<path d="M88.587 66.881C85.981 66.881 83.868 68.994 83.868 71.6V76.227C83.868 78.763 85.924 80.819 88.46 80.819H88.714C91.25 80.819 93.306 78.763 93.306 76.227V71.6C93.306 68.994 91.193 66.881 88.587 66.881Z" fill="white"/>
<path d="M88.587 51.631C86.395 51.631 84.618 53.408 84.618 55.6V59.624C84.618 61.756 86.347 63.485 88.48 63.485H88.694C90.827 63.485 92.556 61.756 92.556 59.624V55.6C92.556 53.408 90.779 51.631 88.587 51.631Z" fill="white"/>
<path d="M90.703 38.047H86.473C85.449 38.047 84.619 38.877 84.619 39.901V43.849C84.619 46.041 86.396 47.818 88.588 47.818C90.78 47.818 92.557 46.041 92.557 43.849V39.901C92.557 38.877 91.726 38.047 90.703 38.047Z" fill="white"/>
</svg>
