 <svg
    width="21"
    height="21"
    viewBox="0 0 42 42"
    fill="none"
    xmlns="http://www.w3.org/2000/svg"
  >
    <path
      d="M21 0.5C32.3218 0.500003 41.5 9.67817 41.5 21C41.5 32.3218 32.3218 41.5 21 41.5C9.67816 41.5 0.500001 32.3218 0.500002 21C0.500003 9.67816 9.67817 0.499998 21 0.5Z"
      stroke="white"
      stroke-miterlimit="10"
      stroke-linecap="round"
      stroke-linejoin="round"
    />
    <path
      fill-rule="evenodd"
      clip-rule="evenodd"
      d="M31.6452 13.258C31.842 13.4358 31.9601 13.6843 31.9736 13.9491C31.9871 14.2139 31.8949 14.4732 31.7172 14.67L18.3612 29.431L10.2852 21.722C10.1039 21.5367 10.0016 21.2882 10 21.0289C9.9984 20.7696 10.0976 20.5198 10.2766 20.3322C10.4556 20.1447 10.7005 20.034 10.9595 20.0235C11.2186 20.013 11.4717 20.1035 11.6652 20.276L18.2552 26.566L30.2342 13.329C30.3224 13.2316 30.4289 13.1525 30.5476 13.0963C30.6664 13.04 30.795 13.0077 30.9262 13.0012C31.0575 12.9947 31.1887 13.0141 31.3124 13.0584C31.4361 13.1026 31.5499 13.1708 31.6472 13.259L31.6452 13.258Z"
      fill="white"
    />
  </svg>